# xmcd
#
# Track frame offsets:
#	150
#	18160
#	36650
#	57370
#	71875
#	86990
#	103735
#	118160
#	135555
#	150430
#	174320
#	196865
#	207400
#	230440
# Disc length: 3255 seconds
# Revision: 1
# Processed by: cddbd v1.5.1PL2 Copyright (c) Steve Scherf et al.
#
# Submitted via: libkcddb 0.21
#
DISCID=c60cb50e
DTITLE=Nana Mouskouri - Nana Mouskouri uit het hart
DYEAR=1900
DGENRE=Vocal
TTITLE0=And i love you so - And i love you so
TTITLE1=I dreamed you - I dreamed you
TTITLE2=I have a dream - I have a dream
TTITLE3=Rote - Korallen
TTITLE4=Koris filin ezitissa - Koris filin ezitissa
TTITLE5=Marie me ta kitrina - Marie me ta kitrina
TTITLE6=That - s my desire
TTITLE7=Strasse der hunderttaussend lichter - Strasse der hunderttaussend lichter
TTITLE8=Ta pedia tou pirea - Ta pedia tou pirea
TTITLE9=The swans tio ti tio ti - The swans tio ti tio ti
TTITLE10=The three bells - The three bells
TTITLE11=To fegari ine kokkino - To fegari ine kokkino
TTITLE12=Voici le mois de may - Voici le mois de may
TTITLE13=Weise rosen aus athen - Weise rosen aus athen
EXTD=
EXTT0=
EXTT1=
EXTT2=
EXTT3=
EXTT4=
EXTT5=
EXTT6=
EXTT7=
EXTT8=
EXTT9=
EXTT10=
EXTT11=
EXTT12=
EXTT13=
PLAYORDER=
